<?xml version="1.0" encoding="UTF-8"?>
<svg xmlns="http://www.w3.org/2000/svg" viewBox="0 0 24 24" fill="none" stroke="currentColor" stroke-width="2" stroke-linecap="round" stroke-linejoin="round">
    <path d="M19.5 12c0-1.232-.046-2.453-.138-3.662a4.006 4.006 0 0 0-3.7-3.169 48.678 48.678 0 0 0-7.324 0 4.006 4.006 0 0 0-3.7 3.169c-.091 1.211-.137 2.434-.137 3.664 0 1.21.043 2.41.127 3.617a4.005 4.005 0 0 0 3.635 3.348 45.601 45.601 0 0 0 5.565 0 4.005 4.005 0 0 0 3.635-3.348c.089-1.205.134-2.408.134-3.619z"/>
    <path d="M8 12h0"/>
    <path d="M16 12h0"/>
    <path d="M11.25 16.25h1.5L12 17l-.75-.75z"/>
    <path d="M11.25 7.75h1.5L12 7l-.75.75z"/>
</svg>
